<?xml version="1.0" encoding="UTF-8" standalone="no"?>
<svg
   version="1.1"
   id="svg8"
   viewBox="0 0 100 100"
   xml:space="preserve"
   sodipodi:docname="0KA.svg"
   inkscape:version="1.1.2 (0a00cf5339, 2022-02-04)"
   xmlns:inkscape="http://www.inkscape.org/namespaces/inkscape"
   xmlns:sodipodi="http://sodipodi.sourceforge.net/DTD/sodipodi-0.dtd"
   xmlns:xlink="http://www.w3.org/1999/xlink"
   xmlns="http://www.w3.org/2000/svg"
   xmlns:svg="http://www.w3.org/2000/svg"><defs
     id="defs297"><linearGradient
       id="a"><stop
         offset="0"
         style="stop-color:#ffdba6;stop-opacity:1"
         id="stop6366" /><stop
         offset="1"
         style="stop-color:#f2c478;stop-opacity:1"
         id="stop6368" /></linearGradient><linearGradient
       xlink:href="#a"
       id="c"
       x1="289.069"
       x2="289.07"
       y1="220.195"
       y2="143.722"
       gradientTransform="translate(-2279.056,-212.603)"
       gradientUnits="userSpaceOnUse" /><clipPath
       id="b"
       clipPathUnits="userSpaceOnUse"><path
         d="M-461.115 1274.429H2373.53v-2834.646H-461.115Z"
         id="path6372" /></clipPath></defs><sodipodi:namedview
     id="namedview295"
     pagecolor="#ffffff"
     bordercolor="#666666"
     borderopacity="1.0"
     inkscape:pageshadow="2"
     inkscape:pageopacity="0.0"
     inkscape:pagecheckerboard="0"
     showgrid="false"
     inkscape:zoom="8.3"
     inkscape:cx="27.289157"
     inkscape:cy="50"
     inkscape:window-width="1920"
     inkscape:window-height="1008"
     inkscape:window-x="0"
     inkscape:window-y="0"
     inkscape:window-maximized="1"
     inkscape:current-layer="svg8" /><style
     id="style233">.st2{fill:#fff}</style><linearGradient
     id="SVGID_1_"
     gradientUnits="userSpaceOnUse"
     x1="19.181"
     y1="972"
     x2="80.829"
     y2="972"
     gradientTransform="translate(0 -922)"><stop
       offset="0"
       stop-color="#f9da9c"
       id="stop235" /><stop
       offset=".043"
       stop-color="#fbe0a1"
       id="stop237" /><stop
       offset=".067"
       stop-color="#fce6a6"
       id="stop239" /><stop
       offset=".145"
       stop-color="#f4d593"
       id="stop241" /><stop
       offset=".193"
       stop-color="#f5d797"
       id="stop243" /><stop
       offset=".243"
       stop-color="#f7dda4"
       id="stop245" /><stop
       offset=".263"
       stop-color="#f9e1ab"
       id="stop247" /><stop
       offset=".329"
       stop-color="#f7dfa8"
       id="stop249" /><stop
       offset=".383"
       stop-color="#f2d89e"
       id="stop251" /><stop
       offset=".398"
       stop-color="#efd599"
       id="stop253" /><stop
       offset=".461"
       stop-color="#f2d795"
       id="stop255" /><stop
       offset=".462"
       stop-color="#f2d795"
       id="stop257" /><stop
       offset=".527"
       stop-color="#f2d795"
       id="stop259" /><stop
       offset=".538"
       stop-color="#f2d795"
       id="stop261" /><stop
       offset=".538"
       stop-color="#f2d795"
       id="stop263" /><stop
       offset=".615"
       stop-color="#efda9c"
       id="stop265" /><stop
       offset=".735"
       stop-color="#f6e5ad"
       id="stop267" /><stop
       offset=".773"
       stop-color="#f9e9b4"
       id="stop269" /><stop
       offset=".822"
       stop-color="#f7e1a6"
       id="stop271" /><stop
       offset=".887"
       stop-color="#f5db9b"
       id="stop273" /><stop
       offset=".956"
       stop-color="#f4d997"
       id="stop275" /><stop
       offset=".967"
       stop-color="#f4da9c"
       id="stop277" /><stop
       offset="1"
       stop-color="#f4db9e"
       id="stop279" /></linearGradient><g
     id="g6408"
     transform="matrix(3.0236385,0,0,3.0236385,4.6460402,-1.4722814)"><g
       clip-path="url(#b)"
       transform="matrix(0.35278,0,0,-0.35278,22.671,6.59)"
       id="g6381"><path
         d="m 0,0 -21.223,7.255 a 1.62,1.62 0 0 1 -1.044,0 L -43.49,0 c -0.512,-0.175 -0.879,-0.593 -0.956,-1.088 L -54.328,-64.8 c -0.128,-0.823 0.569,-1.559 1.477,-1.559 H 9.361 c 0.907,0 1.605,0.736 1.477,1.559 L 0.955,-1.088 C 0.879,-0.593 0.512,-0.175 0,0"
         style="color:#000000;fill:url(#c);stroke-miterlimit:10;-inkscape-stroke:none"
         id="path6377" /><path
         d="m -52.852,-67.209 c -1.367,0 -2.528,1.177 -2.316,2.54 l 9.88,63.712 c 0.13,0.829 0.736,1.493 1.522,1.762 L -22.54,8.06 a 2.46,2.46 0 0 0 1.592,0 h 0.002 L 0.275,0.805 c 0.786,-0.269 1.392,-0.933 1.52,-1.762 v -0.002 l 9.883,-63.71 c 0.212,-1.364 -0.95,-2.54 -2.317,-2.54 h -31.105 z m 0,1.701 H 9.361 c 0.447,0 0.681,0.293 0.637,0.576 v 0.002 L 0.115,-1.217 c -0.024,0.16 -0.153,0.331 -0.39,0.412 L -21.498,6.451 V 6.45 a 0.78,0.78 0 0 1 -0.494,0 v 0.002 l -21.223,-7.257 c -0.237,-0.08 -0.365,-0.252 -0.39,-0.414 l -9.883,-63.71 v -0.003 c -0.044,-0.283 0.188,-0.576 0.636,-0.576"
         style="color:#000000;fill:#4d3608;stroke-miterlimit:10;-inkscape-stroke:none"
         id="path6379" /></g><path
       d="m 661.645,7.7 0.794,0.232 -0.397,0.562 h 2.216 l 0.132,-0.066 0.463,0.496 q -0.066,0.033 -1.058,1.026 h 2.315 v 4.663 q 0,0.33 -0.265,0.595 -0.297,0.265 -1.29,0.298 0,-0.265 -0.033,-0.33 0,-0.034 -0.066,-0.166 -0.066,-0.066 -0.165,-0.265 h 0.86 q 0.066,0 0.1,-0.033 0.032,-0.033 0.032,-0.1 v -0.991 h -4.233 q -0.066,0.231 -0.43,1.025 -0.199,0.298 -0.662,0.76 -0.231,-0.33 -0.595,-0.595 0.629,-0.628 0.794,-1.025 0.165,-0.496 0.231,-0.926 0.066,-0.86 0.066,-2.58 -0.529,0.496 -0.826,0.662 -0.199,-0.331 -0.53,-0.596 0.728,-0.463 1.257,-0.992 0.596,-0.661 1.29,-1.653 m -0.86,2.25 h 2.117 l 0.694,-0.794 h -2.083 q -0.265,0.264 -0.43,0.463 -0.165,0.198 -0.298,0.33 m 2.778,1.488 h 1.72 v -0.827 h -1.72 z m -0.76,-0.827 h -1.588 v 0.827 h 1.588 z m 0.76,2.348 h 1.72 v -0.926 h -1.72 z m -2.38,0 h 1.62 v -0.926 h -1.588 q -0.033,0.298 -0.033,0.926"
       aria-label="角"
       style="fill:#000000 icc-color(sRGB-IEC61966-2, 0.1, 0, 0, 0);stroke-width:0.352777"
       transform="translate(-648)"
       id="path6383" /><path
       d="m 666.165,26.517 -6.648,-6.716 0.32,-0.317 6.648,6.716 z"
       style="color:#000000;fill:#000000 icc-color(sRGB-IEC61966-2, 0.1, 0, 0, 0);stroke-width:0.352778;stroke-miterlimit:10;-inkscape-stroke:none"
       transform="translate(-648)"
       id="path6385" /><path
       d="m 659.452,21 v -1.583 h 1.569 v 0.45 h -1.118 v 1.132 z m 5.53,5.584 v -0.45 h 1.118 v -1.132 h 0.45 v 1.582 z m -5.145,-0.067 -0.32,-0.317 6.648,-6.716 0.32,0.317 z"
       style="color:#000000;fill:#000000 icc-color(sRGB-IEC61966-2, 0.1, 0, 0, 0);stroke-width:0.352778;stroke-miterlimit:10;-inkscape-stroke:none"
       transform="translate(-648)"
       id="path6387" /><path
       d="m 659.452,26.584 v -1.583 h 0.45 v 1.132 h 1.119 v 0.451 z m 6.648,-5.543 v -1.174 h -1.118 v -0.45 h 1.568 v 1.624 z"
       style="color:#000000;fill:#000000 icc-color(sRGB-IEC61966-2, 0.1, 0, 0, 0);stroke-width:0.352778;stroke-miterlimit:10;-inkscape-stroke:none"
       transform="translate(-648)"
       id="path6389" /></g></svg>
