<?xml version="1.0" encoding="UTF-8" standalone="no"?>
<svg
   version="1.1"
   id="svg8"
   viewBox="0 0 100 100"
   xml:space="preserve"
   sodipodi:docname="0NG.svg"
   inkscape:version="1.1.2 (0a00cf5339, 2022-02-04)"
   xmlns:inkscape="http://www.inkscape.org/namespaces/inkscape"
   xmlns:sodipodi="http://sodipodi.sourceforge.net/DTD/sodipodi-0.dtd"
   xmlns:xlink="http://www.w3.org/1999/xlink"
   xmlns="http://www.w3.org/2000/svg"
   xmlns:svg="http://www.w3.org/2000/svg"><defs
     id="defs548"><linearGradient
       id="a"><stop
         offset="0"
         style="stop-color:#ffdba6;stop-opacity:1"
         id="stop5709" /><stop
         offset="1"
         style="stop-color:#f2c478;stop-opacity:1"
         id="stop5711" /></linearGradient><linearGradient
       xlink:href="#a"
       id="c"
       x1="289.069"
       x2="289.07"
       y1="220.195"
       y2="143.722"
       gradientTransform="translate(-2279.056,-212.603)"
       gradientUnits="userSpaceOnUse" /><clipPath
       id="b"
       clipPathUnits="userSpaceOnUse"><path
         d="M-318.38 1360.576h2834.646V-1474.07H-318.38Z"
         id="path5715" /></clipPath></defs><sodipodi:namedview
     id="namedview546"
     pagecolor="#ffffff"
     bordercolor="#666666"
     borderopacity="1.0"
     inkscape:pageshadow="2"
     inkscape:pageopacity="0.0"
     inkscape:pagecheckerboard="0"
     showgrid="false"
     inkscape:zoom="8.3"
     inkscape:cx="27.289157"
     inkscape:cy="50"
     inkscape:window-width="1920"
     inkscape:window-height="1008"
     inkscape:window-x="0"
     inkscape:window-y="0"
     inkscape:window-maximized="1"
     inkscape:current-layer="svg8" /><style
     id="style486">.st2{fill:#c30}</style><linearGradient
     id="SVGID_1_"
     gradientUnits="userSpaceOnUse"
     x1="16.2"
     y1="52"
     x2="83.8"
     y2="52"
     gradientTransform="matrix(1 0 0 -1 0 102)"><stop
       offset="0"
       stop-color="#f9da9c"
       id="stop488" /><stop
       offset=".043"
       stop-color="#fbe0a1"
       id="stop490" /><stop
       offset=".067"
       stop-color="#fce6a6"
       id="stop492" /><stop
       offset=".145"
       stop-color="#f4d593"
       id="stop494" /><stop
       offset=".193"
       stop-color="#f5d797"
       id="stop496" /><stop
       offset=".243"
       stop-color="#f7dda4"
       id="stop498" /><stop
       offset=".263"
       stop-color="#f9e1ab"
       id="stop500" /><stop
       offset=".329"
       stop-color="#f7dfa8"
       id="stop502" /><stop
       offset=".383"
       stop-color="#f2d89e"
       id="stop504" /><stop
       offset=".398"
       stop-color="#efd599"
       id="stop506" /><stop
       offset=".461"
       stop-color="#f2d795"
       id="stop508" /><stop
       offset=".462"
       stop-color="#f2d795"
       id="stop510" /><stop
       offset=".527"
       stop-color="#f2d795"
       id="stop512" /><stop
       offset=".538"
       stop-color="#f2d795"
       id="stop514" /><stop
       offset=".538"
       stop-color="#f2d795"
       id="stop516" /><stop
       offset=".615"
       stop-color="#efda9c"
       id="stop518" /><stop
       offset=".735"
       stop-color="#f6e5ad"
       id="stop520" /><stop
       offset=".773"
       stop-color="#f9e9b4"
       id="stop522" /><stop
       offset=".822"
       stop-color="#f7e1a6"
       id="stop524" /><stop
       offset=".887"
       stop-color="#f5db9b"
       id="stop526" /><stop
       offset=".956"
       stop-color="#f4d997"
       id="stop528" /><stop
       offset=".967"
       stop-color="#f4da9c"
       id="stop530" /><stop
       offset="1"
       stop-color="#f4db9e"
       id="stop532" /></linearGradient><g
     id="g5754"
     transform="matrix(3.0236303,0,0,3.0236303,4.6464084,-1.467347)"><g
       clip-path="url(#b)"
       transform="matrix(0.35278,0,0,-0.35278,22.317,6.98)"
       id="g5724"><path
         d="m 0,0 -20.266,6.952 a 1.47,1.47 0 0 1 -0.952,0 L -41.484,0 a 1.59,1.59 0 0 1 -1.038,-1.274 l -9.381,-60.689 c -0.151,-0.981 0.569,-1.871 1.515,-1.871 H 8.905 c 0.945,0 1.666,0.89 1.514,1.871 L 1.038,-1.274 A 1.59,1.59 0 0 1 0,0"
         style="color:#000000;fill:url(#c);stroke-miterlimit:10;-inkscape-stroke:none"
         id="path5720" /><path
         d="m -50.389,-64.684 c -1.479,0 -2.58,1.39 -2.355,2.85 l 9.38,60.69 c 0.139,0.893 0.747,1.655 1.604,1.949 l 20.266,6.95 a 2.32,2.32 0 0 0 1.504,0 L 0.275,0.806 C 1.134,0.51 1.741,-0.252 1.88,-1.145 l 9.38,-60.687 c 0.227,-1.46 -0.876,-2.852 -2.355,-2.852 h -29.646 z m 0,1.7 H 8.904 c 0.411,0 0.752,0.388 0.674,0.89 l -9.38,60.69 a 0.74,0.74 0 0 1 -0.473,0.6 l -20.266,6.952 a 0.6,0.6 0 0 1 -0.4,0 l -20.266,-6.953 a 0.75,0.75 0 0 1 -0.475,-0.6 l -9.38,-60.689 c -0.077,-0.502 0.261,-0.89 0.673,-0.89"
         style="color:#000000;fill:#4d3608;stroke-miterlimit:10;-inkscape-stroke:none"
         id="path5722" /></g><path
       d="m 518.775,26.5 v -8 h 0.45 v 8 z"
       style="color:#000000;fill:#ff0000;stroke-width:0.352778;stroke-miterlimit:10;-inkscape-stroke:none"
       transform="translate(-504)"
       id="path5726" /><path
       d="m 515,22.725 v -0.45 h 8 v 0.45 z"
       style="color:#000000;fill:#ff0000;stroke-width:0.352778;stroke-miterlimit:10;-inkscape-stroke:none"
       transform="translate(-504)"
       id="path5728" /><path
       d="m 518.84,22.66 -2.828,-2.83 0.319,-0.318 2.828,2.829 z"
       style="color:#000000;fill:#ff0000;stroke-width:0.352778;stroke-miterlimit:10;-inkscape-stroke:none"
       transform="translate(-504)"
       id="path5730" /><path
       d="m 519.16,22.66 -0.32,-0.32 2.83,-2.828 0.318,0.319 z"
       style="color:#000000;fill:#ff0000;stroke-width:0.352778;stroke-miterlimit:10;-inkscape-stroke:none"
       transform="translate(-504)"
       id="path5732" /><path
       d="m 518.896,9.106 q -0.723,0.793 -1.102,1.137 -0.448,0.448 -1.102,0.93 h 4.34 q -1.205,-0.93 -2.136,-2.067 m -0.172,-1.033 0.793,0.31 -0.138,0.172 q 0.964,1.068 1.998,1.826 0.827,0.551 1.757,0.896 -0.31,0.31 -0.517,0.758 l -1.24,-0.62 v 0.482 h -2.033 v 1.137 h 2.033 v 0.689 h -2.033 v 1.481 h 3.204 v 0.724 h -7.166 v -0.724 h 3.136 v -1.481 h -2.17 v -0.69 h 2.17 v -1.136 h -2.17 v -0.482 q -0.552,0.413 -1.034,0.654 -0.104,-0.24 -0.448,-0.689 1.378,-0.792 2.136,-1.447 0.827,-0.723 1.722,-1.86"
       aria-label="全"
       style="fill:#ff0000;stroke-width:0.352777"
       transform="translate(-504)"
       id="path5734" /></g></svg>
