<?xml version="1.0" encoding="UTF-8" standalone="no"?>
<svg
   version="1.1"
   id="svg8"
   viewBox="0 0 100 100"
   xml:space="preserve"
   sodipodi:docname="0NY.svg"
   inkscape:version="1.1.2 (0a00cf5339, 2022-02-04)"
   xmlns:inkscape="http://www.inkscape.org/namespaces/inkscape"
   xmlns:sodipodi="http://sodipodi.sourceforge.net/DTD/sodipodi-0.dtd"
   xmlns:xlink="http://www.w3.org/1999/xlink"
   xmlns="http://www.w3.org/2000/svg"
   xmlns:svg="http://www.w3.org/2000/svg"><defs
     id="defs676"><linearGradient
       id="a"><stop
         offset="0"
         style="stop-color:#ffdba6;stop-opacity:1"
         id="stop5369" /><stop
         offset="1"
         style="stop-color:#f2c478;stop-opacity:1"
         id="stop5371" /></linearGradient><linearGradient
       xlink:href="#a"
       id="c"
       x1="289.069"
       x2="289.07"
       y1="220.195"
       y2="143.722"
       gradientTransform="translate(-2279.056,-212.603)"
       gradientUnits="userSpaceOnUse" /><clipPath
       id="b"
       clipPathUnits="userSpaceOnUse"><path
         d="M-174.688 1363.143h2834.646v-2834.646H-174.69Z"
         id="path5375" /></clipPath></defs><sodipodi:namedview
     id="namedview674"
     pagecolor="#ffffff"
     bordercolor="#666666"
     borderopacity="1.0"
     inkscape:pageshadow="2"
     inkscape:pageopacity="0.0"
     inkscape:pagecheckerboard="0"
     showgrid="false"
     inkscape:zoom="8.3"
     inkscape:cx="27.289157"
     inkscape:cy="50"
     inkscape:window-width="1920"
     inkscape:window-height="1008"
     inkscape:window-x="0"
     inkscape:window-y="0"
     inkscape:window-maximized="1"
     inkscape:current-layer="svg8" /><style
     id="style614">.st3{fill:#fff}</style><linearGradient
     id="SVGID_1_"
     gradientUnits="userSpaceOnUse"
     x1="23.713"
     y1="972"
     x2="76.15"
     y2="972"
     gradientTransform="translate(0 -922)"><stop
       offset="0"
       stop-color="#f9da9c"
       id="stop616" /><stop
       offset=".043"
       stop-color="#fbe0a1"
       id="stop618" /><stop
       offset=".067"
       stop-color="#fce6a6"
       id="stop620" /><stop
       offset=".145"
       stop-color="#f4d593"
       id="stop622" /><stop
       offset=".193"
       stop-color="#f5d797"
       id="stop624" /><stop
       offset=".243"
       stop-color="#f7dda4"
       id="stop626" /><stop
       offset=".263"
       stop-color="#f9e1ab"
       id="stop628" /><stop
       offset=".329"
       stop-color="#f7dfa8"
       id="stop630" /><stop
       offset=".383"
       stop-color="#f2d89e"
       id="stop632" /><stop
       offset=".398"
       stop-color="#efd599"
       id="stop634" /><stop
       offset=".461"
       stop-color="#f2d795"
       id="stop636" /><stop
       offset=".462"
       stop-color="#f2d795"
       id="stop638" /><stop
       offset=".527"
       stop-color="#f2d795"
       id="stop640" /><stop
       offset=".538"
       stop-color="#f2d795"
       id="stop642" /><stop
       offset=".538"
       stop-color="#f2d795"
       id="stop644" /><stop
       offset=".615"
       stop-color="#efda9c"
       id="stop646" /><stop
       offset=".735"
       stop-color="#f6e5ad"
       id="stop648" /><stop
       offset=".773"
       stop-color="#f9e9b4"
       id="stop650" /><stop
       offset=".822"
       stop-color="#f7e1a6"
       id="stop652" /><stop
       offset=".887"
       stop-color="#f5db9b"
       id="stop654" /><stop
       offset=".956"
       stop-color="#f4d997"
       id="stop656" /><stop
       offset=".967"
       stop-color="#f4da9c"
       id="stop658" /><stop
       offset="1"
       stop-color="#f4db9e"
       id="stop660" /></linearGradient><g
     id="g5414"
     transform="matrix(3.023634,0,0,3.023634,4.6467149,-1.3995936)"><g
       clip-path="url(#b)"
       transform="matrix(0.35278,0,0,-0.35278,21.626,7.886)"
       id="g5384"><path
         d="m 0,0 -18.208,6.244 c -0.37,0.127 -0.78,0.127 -1.15,0 L -37.566,0 c -0.538,-0.184 -0.92,-0.612 -0.998,-1.116 l -8.551,-55.301 c -0.13,-0.841 0.611,-1.59 1.573,-1.59 H 7.976 c 0.962,0 1.703,0.749 1.573,1.59 L 0.998,-1.116 C 0.92,-0.612 0.538,-0.184 0,0"
         style="color:#000000;fill:url(#c);stroke-miterlimit:10;-inkscape-stroke:none"
         id="path5380" /><path
         d="m -45.543,-58.857 c -1.403,0 -2.628,1.171 -2.412,2.57 l 8.55,55.3 c 0.132,0.847 0.76,1.517 1.563,1.792 l 18.207,6.244 c 0.553,0.19 1.15,0.19 1.703,0 L 0.275,0.805 C 1.08,0.53 1.707,-0.14 1.838,-0.986 l 8.55,-55.301 c 0.217,-1.399 -1.008,-2.57 -2.411,-2.57 h -26.76 z m 0,1.7 h 53.52 c 0.52,0 0.776,0.327 0.732,0.61 l -8.55,55.3 c -0.026,0.162 -0.162,0.35 -0.434,0.442 l -18.21,6.244 a 0.95,0.95 0 0 1 -0.597,0 l -18.209,-6.244 c -0.273,-0.093 -0.407,-0.28 -0.432,-0.441 l -8.552,-55.3 c -0.044,-0.284 0.211,-0.61 0.732,-0.61"
         style="color:#000000;fill:#4d3608;stroke-miterlimit:10;-inkscape-stroke:none"
         id="path5382" /></g><path
       d="m 232.981,14.825 v -1.447 h -3.824 v 1.447 z m -3.824,1.172 h -0.827 v -3.342 h 5.478 v 3.342 h -0.827 v -0.483 h -3.824 z m 1.481,-6.925 V 8.004 h 0.862 v 1.068 h 3.41 v 0.689 h -3.066 q 0.724,0.827 1.344,1.31 0.723,0.55 1.93,1.136 -0.242,0.31 -0.518,0.758 -1.205,-0.69 -1.791,-1.171 -0.62,-0.483 -1.31,-1.31 v 1.895 h -0.86 V 10.45 q -0.483,0.517 -1.103,1.034 -0.31,0.24 -0.999,0.723 l -1.102,0.62 q -0.345,-0.482 -0.552,-0.654 1.103,-0.517 1.895,-1.103 0.861,-0.62 1.447,-1.309 H 227.4 V 9.072 Z"
       aria-label="æ"
       style="fill:#ff0000;stroke-width:0.352777"
       transform="translate(-216)"
       id="path5386" /><path
       d="m 230.775,26 v -8 h 0.45 v 8 z"
       style="color:#000000;fill:#ff0000;stroke-width:0.352778;stroke-miterlimit:10;-inkscape-stroke:none"
       transform="translate(-216)"
       id="path5388" /><path
       d="m 227,22.225 v -0.45 h 8 v 0.45 z"
       style="color:#000000;fill:#ff0000;stroke-width:0.352778;stroke-miterlimit:10;-inkscape-stroke:none"
       transform="translate(-216)"
       id="path5390" /><path
       d="m 230.84,22.16 -2.827,-2.83 0.318,-0.318 2.828,2.829 z"
       style="color:#000000;fill:#ff0000;stroke-width:0.352778;stroke-miterlimit:10;-inkscape-stroke:none"
       transform="translate(-216)"
       id="path5392" /><path
       d="m 231.16,22.16 -0.32,-0.32 2.83,-2.828 0.318,0.319 z"
       style="color:#000000;fill:#ff0000;stroke-width:0.352778;stroke-miterlimit:10;-inkscape-stroke:none"
       transform="translate(-216)"
       id="path5394" /></g></svg>
