<?xml version="1.0" encoding="UTF-8" standalone="no"?>
<svg
   version="1.1"
   id="svg8"
   viewBox="0 0 100 100"
   xml:space="preserve"
   sodipodi:docname="0RY.svg"
   inkscape:version="1.1.2 (0a00cf5339, 2022-02-04)"
   xmlns:inkscape="http://www.inkscape.org/namespaces/inkscape"
   xmlns:sodipodi="http://sodipodi.sourceforge.net/DTD/sodipodi-0.dtd"
   xmlns:xlink="http://www.w3.org/1999/xlink"
   xmlns="http://www.w3.org/2000/svg"
   xmlns:svg="http://www.w3.org/2000/svg"><defs
     id="defs801"><linearGradient
       id="a"><stop
         offset="0"
         style="stop-color:#ffdba6;stop-opacity:1"
         id="stop5026" /><stop
         offset="1"
         style="stop-color:#f2c478;stop-opacity:1"
         id="stop5028" /></linearGradient><linearGradient
       xlink:href="#a"
       id="c"
       x1="289.069"
       x2="289.07"
       y1="220.195"
       y2="143.722"
       gradientTransform="translate(-2279.056,-212.603)"
       gradientUnits="userSpaceOnUse" /><clipPath
       id="b"
       clipPathUnits="userSpaceOnUse"><path
         d="M-531.981 1359.468h2834.646v-2834.646H-531.981Z"
         id="path5032" /></clipPath></defs><sodipodi:namedview
     id="namedview799"
     pagecolor="#ffffff"
     bordercolor="#666666"
     borderopacity="1.0"
     inkscape:pageshadow="2"
     inkscape:pageopacity="0.0"
     inkscape:pagecheckerboard="0"
     showgrid="false"
     inkscape:zoom="8.3"
     inkscape:cx="27.289157"
     inkscape:cy="50"
     inkscape:window-width="1920"
     inkscape:window-height="1008"
     inkscape:window-x="0"
     inkscape:window-y="0"
     inkscape:window-maximized="1"
     inkscape:current-layer="svg8" /><style
     id="style739">.st2{fill:#c30}</style><linearGradient
     id="SVGID_1_"
     gradientUnits="userSpaceOnUse"
     x1="19.181"
     y1="972"
     x2="80.829"
     y2="972"
     gradientTransform="translate(0 -922)"><stop
       offset="0"
       stop-color="#f9da9c"
       id="stop741" /><stop
       offset=".043"
       stop-color="#fbe0a1"
       id="stop743" /><stop
       offset=".067"
       stop-color="#fce6a6"
       id="stop745" /><stop
       offset=".145"
       stop-color="#f4d593"
       id="stop747" /><stop
       offset=".193"
       stop-color="#f5d797"
       id="stop749" /><stop
       offset=".243"
       stop-color="#f7dda4"
       id="stop751" /><stop
       offset=".263"
       stop-color="#f9e1ab"
       id="stop753" /><stop
       offset=".329"
       stop-color="#f7dfa8"
       id="stop755" /><stop
       offset=".383"
       stop-color="#f2d89e"
       id="stop757" /><stop
       offset=".398"
       stop-color="#efd599"
       id="stop759" /><stop
       offset=".461"
       stop-color="#f2d795"
       id="stop761" /><stop
       offset=".462"
       stop-color="#f2d795"
       id="stop763" /><stop
       offset=".527"
       stop-color="#f2d795"
       id="stop765" /><stop
       offset=".538"
       stop-color="#f2d795"
       id="stop767" /><stop
       offset=".538"
       stop-color="#f2d795"
       id="stop769" /><stop
       offset=".615"
       stop-color="#efda9c"
       id="stop771" /><stop
       offset=".735"
       stop-color="#f6e5ad"
       id="stop773" /><stop
       offset=".773"
       stop-color="#f9e9b4"
       id="stop775" /><stop
       offset=".822"
       stop-color="#f7e1a6"
       id="stop777" /><stop
       offset=".887"
       stop-color="#f5db9b"
       id="stop779" /><stop
       offset=".956"
       stop-color="#f4d997"
       id="stop781" /><stop
       offset=".967"
       stop-color="#f4da9c"
       id="stop783" /><stop
       offset="1"
       stop-color="#f4db9e"
       id="stop785" /></linearGradient><g
     id="g5074"
     transform="matrix(3.0236385,0,0,3.0236385,4.6460402,-1.4722814)"><g
       clip-path="url(#b)"
       transform="matrix(0.35278,0,0,-0.35278,22.671,6.59)"
       id="g5041"><path
         d="m 0,0 -21.223,7.255 a 1.62,1.62 0 0 1 -1.044,0 L -43.49,0 c -0.512,-0.175 -0.879,-0.592 -0.956,-1.088 L -54.328,-64.8 c -0.128,-0.823 0.569,-1.559 1.477,-1.559 H 9.361 c 0.907,0 1.605,0.736 1.477,1.559 L 0.955,-1.088 C 0.879,-0.592 0.512,-0.175 0,0"
         style="color:#000000;fill:url(#c);stroke-miterlimit:10;-inkscape-stroke:none"
         id="path5037" /><path
         d="m -52.852,-67.209 c -1.367,0 -2.528,1.177 -2.316,2.54 l 9.88,63.712 c 0.13,0.83 0.737,1.493 1.522,1.762 L -22.54,8.06 a 2.46,2.46 0 0 0 1.592,0 h 0.002 L 0.275,0.805 C 1.06,0.536 1.667,-0.127 1.795,-0.957 v -0.002 l 9.883,-63.71 c 0.212,-1.364 -0.95,-2.54 -2.317,-2.54 h -31.105 z m 0,1.701 H 9.361 c 0.447,0 0.681,0.293 0.637,0.576 v 0.002 L 0.115,-1.217 c -0.024,0.162 -0.152,0.33 -0.39,0.412 L -21.498,6.451 V 6.45 a 0.78,0.78 0 0 1 -0.494,0 v 0.002 l -21.223,-7.257 c -0.238,-0.081 -0.365,-0.251 -0.39,-0.414 l -9.883,-63.71 v -0.003 c -0.044,-0.283 0.188,-0.576 0.636,-0.576"
         style="color:#000000;fill:#4d3608;stroke-miterlimit:10;-inkscape-stroke:none"
         id="path5039" /></g><path
       d="m 878.775,27.18 v -8.36 h 0.45 v 8.359 z"
       style="color:#000000;fill:#ff0000;stroke-width:0.352778;stroke-miterlimit:10;-inkscape-stroke:none"
       transform="translate(-864)"
       id="path5043" /><path
       d="m 878.315,19.825 -0.319,-0.319 1.004,-1.003 1.004,1.003 -0.319,0.319 L 879,19.14 Z m 0.685,7.673 -1.004,-1.003 0.319,-0.319 0.685,0.685 0.685,-0.685 0.318,0.319 z m -4.18,-4.272 v -0.45 h 8.36 v 0.45 z"
       style="color:#000000;fill:#ff0000;stroke-width:0.352778;stroke-miterlimit:10;-inkscape-stroke:none"
       transform="translate(-864)"
       id="path5045" /><path
       d="M 875.506,24.004 874.503,23 l 1.003,-1.004 0.318,0.318 -0.685,0.686 0.685,0.685 z m 6.988,0 -0.318,-0.318 0.685,-0.686 -0.685,-0.685 0.318,-0.318 1.003,1.003 z"
       style="color:#000000;fill:#ff0000;stroke-width:0.352778;stroke-miterlimit:10;-inkscape-stroke:none"
       transform="translate(-864)"
       id="path5047" /><path
       d="M 877.81,13.356 V 12.86 h -1.456 v 0.496 z m 0,-1.025 v -0.53 h -1.456 v 0.53 z m -2.184,3.142 v -4.366 h 2.91 v 3.54 q 0,0.33 -0.198,0.528 -0.264,0.199 -0.826,0.298 -0.034,-0.298 -0.1,-0.463 0,-0.033 -0.066,-0.132 l -0.165,-0.166 h 0.43 q 0.132,0 0.165,-0.033 0.033,-0.033 0.033,-0.132 v -0.595 h -1.455 v 1.521 z m 3.671,-5.325 V 7.866 h 0.794 v 0.629 h 2.382 V 9.09 h -2.382 v 0.496 h 2.382 v 1.687 h -2.448 v 0.496 h 2.216 v 0.43 h -2.216 v 0.463 h 2.216 v 0.463 h -2.216 v 0.463 h 2.216 v 0.463 h -2.216 v 0.397 q 0,0.231 0.132,0.264 0.067,0.066 0.463,0.066 h 0.926 q 0.331,0 0.364,-0.033 0.298,-0.099 0.331,-0.529 0.33,0.232 0.661,0.331 -0.132,0.496 -0.363,0.661 -0.232,0.199 -0.53,0.199 h -1.72 q -0.363,0 -0.562,-0.066 -0.165,-0.033 -0.33,-0.265 -0.1,-0.132 -0.1,-0.43 V 10.71 h 2.448 v -0.562 z m -1.852,-0.099 0.265,-0.992 h -1.19 q 0.165,0.529 0.297,0.992 z M 876.718,8.495 V 7.833 h 0.794 v 0.662 h 1.322 v 0.562 h -0.396 l -0.331,0.992 H 879 v 0.661 h -3.77 v -0.661 h 0.892 q 0,-0.1 -0.099,-0.43 -0.099,-0.364 -0.165,-0.562 h -0.496 V 8.495 Z"
       aria-label="é¾"
       style="fill:#ff0000;stroke-width:0.352777"
       transform="translate(-864)"
       id="path5049" /><path
       d="m 881.306,25.624 -4.93,-4.93 0.319,-0.318 4.929,4.93 z"
       style="color:#000000;fill:#ff0000;stroke-width:0.352778;stroke-miterlimit:10;-inkscape-stroke:none"
       transform="translate(-864)"
       id="path5051" /><path
       d="m 876.695,25.625 -0.319,-0.319 4.93,-4.93 0.318,0.319 z"
       style="color:#000000;fill:#ff0000;stroke-width:0.352778;stroke-miterlimit:10;-inkscape-stroke:none"
       transform="translate(-864)"
       id="path5053" /></g></svg>
