<?xml version="1.0" encoding="UTF-8" standalone="no"?>
<svg
   version="1.1"
   id="svg8"
   viewBox="0 0 100 100"
   xml:space="preserve"
   sodipodi:docname="1GI.svg"
   inkscape:version="1.1.2 (0a00cf5339, 2022-02-04)"
   xmlns:inkscape="http://www.inkscape.org/namespaces/inkscape"
   xmlns:sodipodi="http://sodipodi.sourceforge.net/DTD/sodipodi-0.dtd"
   xmlns:xlink="http://www.w3.org/1999/xlink"
   xmlns="http://www.w3.org/2000/svg"
   xmlns:svg="http://www.w3.org/2000/svg"><defs
     id="defs1046"><linearGradient
       id="a"><stop
         offset="0"
         style="stop-color:#ffdba6;stop-opacity:1"
         id="stop4365" /><stop
         offset="1"
         style="stop-color:#f2c478;stop-opacity:1"
         id="stop4367" /></linearGradient><linearGradient
       xlink:href="#a"
       id="c"
       x1="289.069"
       x2="289.07"
       y1="220.195"
       y2="143.722"
       gradientTransform="translate(-2279.056,-212.603)"
       gradientUnits="userSpaceOnUse" /><clipPath
       id="b"
       clipPathUnits="userSpaceOnUse"><path
         d="M-318.38 1275.536h2834.646V-1559.11H-318.38Z"
         id="path4371" /></clipPath></defs><sodipodi:namedview
     id="namedview1044"
     pagecolor="#ffffff"
     bordercolor="#666666"
     borderopacity="1.0"
     inkscape:pageshadow="2"
     inkscape:pageopacity="0.0"
     inkscape:pagecheckerboard="0"
     showgrid="false"
     inkscape:zoom="8.3"
     inkscape:cx="27.289157"
     inkscape:cy="50"
     inkscape:window-width="1920"
     inkscape:window-height="1008"
     inkscape:window-x="0"
     inkscape:window-y="0"
     inkscape:window-maximized="1"
     inkscape:current-layer="svg8" /><style
     id="style986" /><linearGradient
     id="SVGID_1_"
     gradientUnits="userSpaceOnUse"
     x1="20.649"
     y1="48.75"
     x2="79.116"
     y2="48.75"
     gradientTransform="matrix(1 0 0 -1 0 102)"><stop
       offset="0"
       stop-color="#f9da9c"
       id="stop988" /><stop
       offset=".043"
       stop-color="#fbe0a1"
       id="stop990" /><stop
       offset=".067"
       stop-color="#fce6a6"
       id="stop992" /><stop
       offset=".145"
       stop-color="#f4d593"
       id="stop994" /><stop
       offset=".193"
       stop-color="#f5d797"
       id="stop996" /><stop
       offset=".243"
       stop-color="#f7dda4"
       id="stop998" /><stop
       offset=".263"
       stop-color="#f9e1ab"
       id="stop1000" /><stop
       offset=".329"
       stop-color="#f7dfa8"
       id="stop1002" /><stop
       offset=".383"
       stop-color="#f2d89e"
       id="stop1004" /><stop
       offset=".398"
       stop-color="#efd599"
       id="stop1006" /><stop
       offset=".461"
       stop-color="#f2d795"
       id="stop1008" /><stop
       offset=".462"
       stop-color="#f2d795"
       id="stop1010" /><stop
       offset=".527"
       stop-color="#f2d795"
       id="stop1012" /><stop
       offset=".538"
       stop-color="#f2d795"
       id="stop1014" /><stop
       offset=".538"
       stop-color="#f2d795"
       id="stop1016" /><stop
       offset=".615"
       stop-color="#efda9c"
       id="stop1018" /><stop
       offset=".735"
       stop-color="#f6e5ad"
       id="stop1020" /><stop
       offset=".773"
       stop-color="#f9e9b4"
       id="stop1022" /><stop
       offset=".822"
       stop-color="#f7e1a6"
       id="stop1024" /><stop
       offset=".887"
       stop-color="#f5db9b"
       id="stop1026" /><stop
       offset=".956"
       stop-color="#f4d997"
       id="stop1028" /><stop
       offset=".967"
       stop-color="#f4da9c"
       id="stop1030" /><stop
       offset="1"
       stop-color="#f4db9e"
       id="stop1032" /></linearGradient><g
     id="g4407"
     transform="matrix(3.0236303,0,0,3.0236303,4.6446826,-1.3360832)"><g
       clip-path="url(#b)"
       transform="matrix(-0.35278,0,0,0.35278,7.683,27.02)"
       id="g4380"><path
         d="m 0,0 -20.266,6.952 a 1.47,1.47 0 0 1 -0.952,0 L -41.484,0 a 1.59,1.59 0 0 1 -1.038,-1.274 l -9.381,-60.689 c -0.151,-0.981 0.569,-1.871 1.515,-1.871 H 8.905 c 0.945,0 1.666,0.89 1.514,1.871 L 1.038,-1.274 A 1.59,1.59 0 0 1 0,0"
         style="color:#000000;fill:url(#c);stroke-miterlimit:10;-inkscape-stroke:none"
         id="path4376" /><path
         d="m -50.389,-64.684 c -1.479,0 -2.58,1.39 -2.355,2.85 l 9.38,60.69 c 0.139,0.893 0.747,1.655 1.604,1.949 l 20.266,6.95 a 2.32,2.32 0 0 0 1.504,0 L 0.275,0.806 C 1.134,0.51 1.741,-0.252 1.88,-1.145 l 9.38,-60.687 c 0.227,-1.46 -0.876,-2.852 -2.355,-2.852 h -29.646 z m 0,1.7 H 8.904 c 0.411,0 0.752,0.388 0.674,0.89 l -9.38,60.69 a 0.74,0.74 0 0 1 -0.473,0.6 l -20.266,6.952 a 0.6,0.6 0 0 1 -0.4,0 l -20.266,-6.953 a 0.75,0.75 0 0 1 -0.475,-0.6 l -9.38,-60.689 c -0.077,-0.502 0.261,-0.89 0.673,-0.89"
         style="color:#000000;fill:#4d3608;stroke-miterlimit:10;-inkscape-stroke:none"
         id="path4378" /></g><path
       d="M 483.225,11.5 V 16 h -0.45 v -4.5 z"
       style="color:#000000;fill:#000000 icc-color(sRGB-IEC61966-2, 0.1, 0, 0, 0);stroke-width:0.352778;stroke-miterlimit:10;-inkscape-stroke:none"
       transform="translate(-468)"
       id="path4382" /><path
       d="m 479.977,8.158 6.364,6.364 -0.318,0.319 -6.364,-6.364 z"
       style="color:#000000;fill:#000000 icc-color(sRGB-IEC61966-2, 0.1, 0, 0, 0);stroke-width:0.352778;stroke-miterlimit:10;-inkscape-stroke:none"
       transform="translate(-468)"
       id="path4384" /><path
       d="m 486.023,8.159 0.318,0.318 -6.364,6.364 -0.318,-0.319 z"
       style="color:#000000;fill:#000000 icc-color(sRGB-IEC61966-2, 0.1, 0, 0, 0);stroke-width:0.352778;stroke-miterlimit:10;-inkscape-stroke:none"
       transform="translate(-468)"
       id="path4386" /><path
       d="m 486.803,21.24 -0.628,0.198 q -0.364,-0.893 -0.397,-1.19 l 0.595,-0.265 q 0.133,0.529 0.43,1.256 m -2.58,0.231 -0.628,-0.265 0.53,-1.124 q 0.132,0.033 0.264,0.132 l 0.132,0.066 q 0.066,0.033 0.166,0.033 -0.1,0.232 -0.199,0.497 -0.132,0.264 -0.264,0.661 m -3.77,1.521 v 0.761 h 1.952 v -0.76 z m 0,1.39 v 0.76 h 1.952 v -0.76 z m 2.712,-4.995 v 6.45 h -3.44 v -3.54 h 1.224 q -0.066,-0.628 -0.066,-0.66 -0.033,-0.133 -0.099,-0.464 l -1.157,0.86 -0.463,-0.661 q 0.396,-0.232 1.356,-0.86 -0.133,-0.33 -0.331,-0.562 -0.265,-0.331 -0.397,-0.463 -0.132,-0.067 -0.265,-0.166 -0.132,-0.066 -0.43,-0.264 0.199,-0.199 0.298,-0.265 l 0.132,-0.132 0.1,-0.1 q 0.033,-0.066 0.099,-0.132 0.727,0.563 0.992,0.926 0.43,0.496 0.628,1.092 0.298,0.86 0.331,1.852 h 0.728 v -2.712 q -0.298,0.1 -0.563,0.165 l -0.529,0.132 -0.033,-0.727 2.282,-0.662 0.199,0.761 z m 2.183,6.846 -0.694,-0.363 0.099,-0.166 -0.595,-0.463 q -0.067,-0.033 -0.232,-0.198 l -0.496,-0.397 0.53,-0.628 0.859,0.793 q 0.1,0.1 0.198,0.166 0.067,0.066 0.133,0.099 0.562,-0.893 0.926,-1.257 h -2.084 V 23.19 h 0.827 v -0.695 h -1.025 v -0.628 h 1.025 V 19.75 q -0.661,0.132 -0.992,0.232 v -0.695 q 0.694,-0.198 1.587,-0.397 l 1.257,-0.297 0.199,0.793 -1.356,0.199 v 2.282 h 1.157 v 0.628 h -1.157 v 0.695 h 0.661 v 0.496 l 0.397,-0.43 q 0.264,0.463 0.43,0.694 -0.926,0.927 -1.654,2.282"
       aria-label="銀"
       style="fill:#000000 icc-color(sRGB-IEC61966-2, 0.1, 0, 0, 0);stroke-width:0.352777"
       transform="translate(-468)"
       id="path4388" /></g></svg>
