<?xml version="1.0" encoding="UTF-8" standalone="no"?>
<svg
   viewBox="0 0 100 100"
   version="1.1"
   id="svg1292"
   sodipodi:docname="1KE.svg"
   inkscape:version="1.1.2 (0a00cf5339, 2022-02-04)"
   xmlns:inkscape="http://www.inkscape.org/namespaces/inkscape"
   xmlns:sodipodi="http://sodipodi.sourceforge.net/DTD/sodipodi-0.dtd"
   xmlns:xlink="http://www.w3.org/1999/xlink"
   xmlns="http://www.w3.org/2000/svg"
   xmlns:svg="http://www.w3.org/2000/svg">
  <defs
     id="defs1296">
    <linearGradient
       id="a-3">
      <stop
         offset="0"
         style="stop-color:#ffdba6;stop-opacity:1"
         id="stop3704" />
      <stop
         offset="1"
         style="stop-color:#f2c478;stop-opacity:1"
         id="stop3706" />
    </linearGradient>
    <linearGradient
       xlink:href="#a-3"
       id="c"
       x1="289.069"
       x2="289.07"
       y1="220.195"
       y2="143.722"
       gradientTransform="translate(-2279.056,-212.603)"
       gradientUnits="userSpaceOnUse" />
    <clipPath
       id="b"
       clipPathUnits="userSpaceOnUse">
      <path
         d="M-246.544 1276.996h2834.646V-1557.65H-246.544Z"
         id="path3710" />
    </clipPath>
  </defs>
  <sodipodi:namedview
     id="namedview1294"
     pagecolor="#ffffff"
     bordercolor="#666666"
     borderopacity="1.0"
     inkscape:pageshadow="2"
     inkscape:pageopacity="0.0"
     inkscape:pagecheckerboard="0"
     showgrid="false"
     inkscape:zoom="8.3"
     inkscape:cx="27.289157"
     inkscape:cy="50"
     inkscape:window-width="1920"
     inkscape:window-height="1008"
     inkscape:window-x="0"
     inkscape:window-y="0"
     inkscape:window-maximized="1"
     inkscape:current-layer="svg1292" />
  <linearGradient
     id="a"
     gradientUnits="userSpaceOnUse"
     x1="22.775"
     y1="49.15"
     x2="77.618"
     y2="49.15"
     gradientTransform="matrix(1 0 0 -1 0 102)">
    <stop
       offset="0"
       stop-color="#f9da9c"
       id="stop1237" />
    <stop
       offset=".043"
       stop-color="#fbe0a1"
       id="stop1239" />
    <stop
       offset=".067"
       stop-color="#fce6a6"
       id="stop1241" />
    <stop
       offset=".145"
       stop-color="#f4d593"
       id="stop1243" />
    <stop
       offset=".193"
       stop-color="#f5d797"
       id="stop1245" />
    <stop
       offset=".243"
       stop-color="#f7dda4"
       id="stop1247" />
    <stop
       offset=".263"
       stop-color="#f9e1ab"
       id="stop1249" />
    <stop
       offset=".329"
       stop-color="#f7dfa8"
       id="stop1251" />
    <stop
       offset=".383"
       stop-color="#f2d89e"
       id="stop1253" />
    <stop
       offset=".398"
       stop-color="#efd599"
       id="stop1255" />
    <stop
       offset=".461"
       stop-color="#f2d795"
       id="stop1257" />
    <stop
       offset=".462"
       stop-color="#f2d795"
       id="stop1259" />
    <stop
       offset=".527"
       stop-color="#f2d795"
       id="stop1261" />
    <stop
       offset=".538"
       stop-color="#f2d795"
       id="stop1263" />
    <stop
       offset=".538"
       stop-color="#f2d795"
       id="stop1265" />
    <stop
       offset=".615"
       stop-color="#efda9c"
       id="stop1267" />
    <stop
       offset=".735"
       stop-color="#f6e5ad"
       id="stop1269" />
    <stop
       offset=".773"
       stop-color="#f9e9b4"
       id="stop1271" />
    <stop
       offset=".822"
       stop-color="#f7e1a6"
       id="stop1273" />
    <stop
       offset=".887"
       stop-color="#f5db9b"
       id="stop1275" />
    <stop
       offset=".956"
       stop-color="#f4d997"
       id="stop1277" />
    <stop
       offset=".967"
       stop-color="#f4da9c"
       id="stop1279" />
    <stop
       offset="1"
       stop-color="#f4db9e"
       id="stop1281" />
  </linearGradient>
  <g
     id="g3740"
     transform="matrix(3.0236326,0,0,3.0236326,4.6444753,-1.3295431)">
    <g
       clip-path="url(#b)"
       transform="matrix(-0.35278,0,0,0.35278,8.025,26.504)"
       id="g3719">
      <path
         d="m 0,0 -19.243,6.562 a 1.66,1.66 0 0 1 -1.059,0 L -39.545,0 c -0.531,-0.181 -0.912,-0.618 -0.993,-1.139 l -8.982,-57.757 c -0.134,-0.863 0.585,-1.636 1.523,-1.636 H 8.452 c 0.938,0 1.657,0.773 1.523,1.636 L 0.993,-1.139 C 0.912,-0.618 0.531,-0.181 0,0"
         style="color:#000000;fill:url(#c);stroke-miterlimit:10;-inkscape-stroke:none"
         id="path3715" />
      <path
         d="m -47.996,-61.383 c -1.405,0 -2.58,1.223 -2.363,2.617 l 8.98,57.758 c 0.132,0.85 0.75,1.537 1.559,1.813 l 19.244,6.562 h 0.002 a 2.5,2.5 0 0 0 1.603,0 h 0.002 L 0.274,0.805 0.275,0.803 c 0.808,-0.277 1.427,-0.962 1.559,-1.81 l 8.98,-57.759 c 0.217,-1.394 -0.958,-2.617 -2.363,-2.617 h -28.224 z m 0,1.701 H 8.45 c 0.471,0 0.735,0.323 0.684,0.655 L 0.152,-1.27 c -0.03,0.193 -0.173,0.38 -0.425,0.465 L 0,0 l -0.275,-0.805 -19.24,6.56 a 0.8,0.8 0 0 1 -0.514,0 l -19.242,-6.56 c -0.253,-0.086 -0.396,-0.272 -0.426,-0.465 l -8.983,-57.757 c -0.051,-0.332 0.213,-0.655 0.684,-0.655"
         style="color:#000000;fill:#4d3608;stroke-miterlimit:10;-inkscape-stroke:none"
         id="path3717" />
    </g>
    <path
       d="m 338.107,20.838 v 1.026 h -0.76 v -1.026 h -1.687 v -0.694 h 1.687 v -1.158 h -1.985 v -0.694 h 4.961 v 0.694 h -2.216 v 1.158 h 1.555 v 0.694 z m 0,3.705 V 25.6 h -0.76 v -1.058 h -1.72 v -0.695 h 1.72 V 22.79 h -1.985 v -0.728 h 4.597 v 0.728 h -1.852 v 1.058 h 1.555 v 0.695 z m 3.539,-0.53 v 1.621 h -0.76 v -1.62 h -0.761 v -0.695 h 0.76 v -0.76 q -0.496,-0.53 -0.992,-0.993 0.132,-0.132 0.463,-0.595 0.364,0.364 0.53,0.595 V 18.06 h 0.76 v 3.308 q 0.463,-0.993 1.025,-1.72 0.133,0.562 0.331,0.926 -0.43,0.562 -0.728,1.091 -0.33,0.695 -0.628,1.654 h 1.158 v 0.694 z"
       aria-label="桂"
       style="fill:#000000 icc-color(sRGB-IEC61966-2, 0.1, 0, 0, 0);stroke-width:0.352777"
       transform="translate(-324)"
       id="path3721" />
    <path
       d="m 339.654,8.25 c 0,2.398 0.323,4.226 0.758,5.43 0.217,0.603 0.464,1.05 0.699,1.328 0.235,0.278 0.443,0.374 0.59,0.366 l 0.024,0.45 c -0.347,0.019 -0.672,-0.187 -0.958,-0.526 q -0.431,-0.508 -0.778,-1.464 c -0.46,-1.274 -0.785,-3.146 -0.785,-5.584 z m -0.858,0 c 0,2.438 -0.325,4.31 -0.785,5.584 q -0.347,0.956 -0.778,1.464 c -0.286,0.339 -0.611,0.545 -0.958,0.526 l 0.023,-0.45 c 0.148,0.008 0.356,-0.088 0.591,-0.366 0.235,-0.279 0.482,-0.725 0.7,-1.327 0.434,-1.205 0.757,-3.033 0.757,-5.431 z"
       style="color:#000000;fill:#000000 icc-color(sRGB-IEC61966-2, 0.1, 0, 0, 0);stroke-width:0.352778;stroke-miterlimit:10;-inkscape-stroke:none"
       transform="translate(-324)"
       id="path3723" />
  </g>
</svg>
