<?xml version="1.0" encoding="UTF-8" standalone="no"?>
<svg
   version="1.1"
   id="svg8"
   viewBox="0 0 100 100"
   xml:space="preserve"
   sodipodi:docname="1KI.svg"
   inkscape:version="1.1.2 (0a00cf5339, 2022-02-04)"
   xmlns:inkscape="http://www.inkscape.org/namespaces/inkscape"
   xmlns:sodipodi="http://sodipodi.sourceforge.net/DTD/sodipodi-0.dtd"
   xmlns:xlink="http://www.w3.org/1999/xlink"
   xmlns="http://www.w3.org/2000/svg"
   xmlns:svg="http://www.w3.org/2000/svg"><defs
     id="defs1358"><linearGradient
       id="a"><stop
         offset="0"
         style="stop-color:#ffdba6;stop-opacity:1"
         id="stop3534" /><stop
         offset="1"
         style="stop-color:#f2c478;stop-opacity:1"
         id="stop3536" /></linearGradient><linearGradient
       xlink:href="#a"
       id="c"
       x1="289.069"
       x2="289.07"
       y1="220.195"
       y2="143.722"
       gradientTransform="translate(-2279.056,-212.603)"
       gradientUnits="userSpaceOnUse" /><clipPath
       id="b"
       clipPathUnits="userSpaceOnUse"><path
         d="M-389.246 1275.536H2445.4V-1559.11H-389.246Z"
         id="path3540" /></clipPath></defs><sodipodi:namedview
     id="namedview1356"
     pagecolor="#ffffff"
     bordercolor="#666666"
     borderopacity="1.0"
     inkscape:pageshadow="2"
     inkscape:pageopacity="0.0"
     inkscape:pagecheckerboard="0"
     showgrid="false"
     inkscape:zoom="8.3"
     inkscape:cx="27.289157"
     inkscape:cy="50"
     inkscape:window-width="1920"
     inkscape:window-height="1008"
     inkscape:window-x="0"
     inkscape:window-y="0"
     inkscape:window-maximized="1"
     inkscape:current-layer="svg8" /><style
     id="style1298" /><linearGradient
     id="SVGID_1_"
     gradientUnits="userSpaceOnUse"
     x1="20.649"
     y1="48.75"
     x2="79.116"
     y2="48.75"
     gradientTransform="matrix(1 0 0 -1 0 102)"><stop
       offset="0"
       stop-color="#f9da9c"
       id="stop1300" /><stop
       offset=".043"
       stop-color="#fbe0a1"
       id="stop1302" /><stop
       offset=".067"
       stop-color="#fce6a6"
       id="stop1304" /><stop
       offset=".145"
       stop-color="#f4d593"
       id="stop1306" /><stop
       offset=".193"
       stop-color="#f5d797"
       id="stop1308" /><stop
       offset=".243"
       stop-color="#f7dda4"
       id="stop1310" /><stop
       offset=".263"
       stop-color="#f9e1ab"
       id="stop1312" /><stop
       offset=".329"
       stop-color="#f7dfa8"
       id="stop1314" /><stop
       offset=".383"
       stop-color="#f2d89e"
       id="stop1316" /><stop
       offset=".398"
       stop-color="#efd599"
       id="stop1318" /><stop
       offset=".461"
       stop-color="#f2d795"
       id="stop1320" /><stop
       offset=".462"
       stop-color="#f2d795"
       id="stop1322" /><stop
       offset=".527"
       stop-color="#f2d795"
       id="stop1324" /><stop
       offset=".538"
       stop-color="#f2d795"
       id="stop1326" /><stop
       offset=".538"
       stop-color="#f2d795"
       id="stop1328" /><stop
       offset=".615"
       stop-color="#efda9c"
       id="stop1330" /><stop
       offset=".735"
       stop-color="#f6e5ad"
       id="stop1332" /><stop
       offset=".773"
       stop-color="#f9e9b4"
       id="stop1334" /><stop
       offset=".822"
       stop-color="#f7e1a6"
       id="stop1336" /><stop
       offset=".887"
       stop-color="#f5db9b"
       id="stop1338" /><stop
       offset=".956"
       stop-color="#f4d997"
       id="stop1340" /><stop
       offset=".967"
       stop-color="#f4da9c"
       id="stop1342" /><stop
       offset="1"
       stop-color="#f4db9e"
       id="stop1344" /></linearGradient><g
     id="g3579"
     transform="matrix(3.0236303,0,0,3.0236303,4.6446826,-1.3360832)"><g
       clip-path="url(#b)"
       transform="matrix(-0.35278,0,0,0.35278,7.683,27.02)"
       id="g3549"><path
         d="m 0,0 -20.266,6.952 a 1.47,1.47 0 0 1 -0.952,0 L -41.484,0 a 1.59,1.59 0 0 1 -1.038,-1.274 l -9.381,-60.689 c -0.151,-0.981 0.569,-1.871 1.515,-1.871 H 8.905 c 0.945,0 1.666,0.89 1.514,1.871 L 1.038,-1.274 A 1.59,1.59 0 0 1 0,0"
         style="color:#000000;fill:url(#c);stroke-miterlimit:10;-inkscape-stroke:none"
         id="path3545" /><path
         d="m -50.389,-64.684 c -1.479,0 -2.58,1.39 -2.355,2.85 l 9.38,60.69 c 0.139,0.893 0.747,1.655 1.604,1.949 l 20.266,6.95 a 2.32,2.32 0 0 0 1.504,0 L 0.275,0.806 C 1.134,0.51 1.741,-0.252 1.88,-1.145 l 9.38,-60.687 c 0.227,-1.46 -0.876,-2.852 -2.355,-2.852 h -29.646 z m 0,1.7 H 8.904 c 0.411,0 0.752,0.388 0.674,0.89 l -9.38,60.69 a 0.74,0.74 0 0 1 -0.473,0.6 l -20.266,6.952 a 0.6,0.6 0 0 1 -0.4,0 l -20.266,-6.953 a 0.75,0.75 0 0 1 -0.475,-0.6 l -9.38,-60.689 c -0.077,-0.502 0.261,-0.89 0.673,-0.89"
         style="color:#000000;fill:#4d3608;stroke-miterlimit:10;-inkscape-stroke:none"
         id="path3547" /></g><path
       d="m 627.225,8 v 8 h -0.45 V 8 Z"
       style="color:#000000;fill:#000000 icc-color(sRGB-IEC61966-2, 0.1, 0, 0, 0);stroke-width:0.352778;stroke-miterlimit:10;-inkscape-stroke:none"
       transform="translate(-612)"
       id="path3551" /><path
       d="m 631,11.774 v 0.451 h -8 v -0.45 z"
       style="color:#000000;fill:#000000 icc-color(sRGB-IEC61966-2, 0.1, 0, 0, 0);stroke-width:0.352778;stroke-miterlimit:10;-inkscape-stroke:none"
       transform="translate(-612)"
       id="path3553" /><path
       d="m 627.16,11.84 2.828,2.83 -0.319,0.317 -2.828,-2.828 z"
       style="color:#000000;fill:#000000 icc-color(sRGB-IEC61966-2, 0.1, 0, 0, 0);stroke-width:0.352778;stroke-miterlimit:10;-inkscape-stroke:none"
       transform="translate(-612)"
       id="path3555" /><path
       d="m 626.84,11.84 0.32,0.319 -2.83,2.828 -0.318,-0.318 z"
       style="color:#000000;fill:#000000 icc-color(sRGB-IEC61966-2, 0.1, 0, 0, 0);stroke-width:0.352778;stroke-miterlimit:10;-inkscape-stroke:none"
       transform="translate(-612)"
       id="path3557" /><path
       d="m 629.722,20.691 -0.655,0.379 q -0.172,-0.207 -0.758,-1.171 l 0.724,-0.345 q 0.275,0.62 0.689,1.137 m -2.619,4.65 q 0.62,-0.688 0.655,-0.723 l 1.102,-1.033 h -3.617 q 0.896,0.758 1.033,0.896 0.035,0.034 0.827,0.86 m 0.173,1.172 -0.827,-0.413 0.138,-0.172 q -0.793,-0.93 -1.62,-1.482 -0.999,-0.792 -2.101,-1.309 0.482,-0.62 0.551,-0.758 0.655,0.345 1.344,0.861 v -0.379 h 1.929 v -0.86 h -3.1 v -0.655 h 3.1 v -1.999 h -1.481 q 0.24,0.173 0.585,0.38 -0.344,0.55 -0.689,1.412 l -0.792,-0.414 q 0.482,-0.93 0.792,-1.378 h -1.895 v -0.723 h 7.614 v 0.723 h -3.307 v 1.999 h 2.894 V 22 h -2.894 v 0.861 h 1.722 v 0.414 q 0.551,-0.482 1.344,-1 0.069,0.139 0.138,0.207 l 0.034,0.104 q 0,0.034 0.138,0.172 0.103,0.172 0.207,0.276 -2.102,1.205 -3.824,3.48"
       aria-label="金"
       style="fill:#000000 icc-color(sRGB-IEC61966-2, 0.1, 0, 0, 0);stroke-width:0.352777"
       transform="translate(-612)"
       id="path3559" /></g></svg>
