<?xml version="1.0" encoding="UTF-8" standalone="no"?>
<svg
   version="1.1"
   id="svg8"
   viewBox="0 0 100 100"
   xml:space="preserve"
   sodipodi:docname="1NK.svg"
   inkscape:version="1.1.2 (0a00cf5339, 2022-02-04)"
   xmlns:inkscape="http://www.inkscape.org/namespaces/inkscape"
   xmlns:sodipodi="http://sodipodi.sourceforge.net/DTD/sodipodi-0.dtd"
   xmlns:xlink="http://www.w3.org/1999/xlink"
   xmlns="http://www.w3.org/2000/svg"
   xmlns:svg="http://www.w3.org/2000/svg"><defs
     id="defs1551"><linearGradient
       id="a"><stop
         offset="0"
         style="stop-color:#ffdba6;stop-opacity:1"
         id="stop3033" /><stop
         offset="1"
         style="stop-color:#f2c478;stop-opacity:1"
         id="stop3035" /></linearGradient><linearGradient
       xlink:href="#a"
       id="c"
       x1="289.069"
       x2="289.07"
       y1="220.195"
       y2="143.722"
       gradientTransform="translate(-2279.056,-212.603)"
       gradientUnits="userSpaceOnUse" /><clipPath
       id="b"
       clipPathUnits="userSpaceOnUse"><path
         d="M-246.544 1362.035h2834.646V-1472.61H-246.544Z"
         id="path3039" /></clipPath></defs><sodipodi:namedview
     id="namedview1549"
     pagecolor="#ffffff"
     bordercolor="#666666"
     borderopacity="1.0"
     inkscape:pageshadow="2"
     inkscape:pageopacity="0.0"
     inkscape:pagecheckerboard="0"
     showgrid="false"
     inkscape:zoom="8.3"
     inkscape:cx="27.289157"
     inkscape:cy="50"
     inkscape:window-width="1920"
     inkscape:window-height="1008"
     inkscape:window-x="0"
     inkscape:window-y="0"
     inkscape:window-maximized="1"
     inkscape:current-layer="svg8" /><style
     id="style1489">.st2{fill:#c30}</style><linearGradient
     id="SVGID_1_"
     gradientUnits="userSpaceOnUse"
     x1="22.775"
     y1="49.15"
     x2="77.618"
     y2="49.15"
     gradientTransform="matrix(1 0 0 -1 0 102)"><stop
       offset="0"
       stop-color="#f9da9c"
       id="stop1491" /><stop
       offset=".043"
       stop-color="#fbe0a1"
       id="stop1493" /><stop
       offset=".067"
       stop-color="#fce6a6"
       id="stop1495" /><stop
       offset=".145"
       stop-color="#f4d593"
       id="stop1497" /><stop
       offset=".193"
       stop-color="#f5d797"
       id="stop1499" /><stop
       offset=".243"
       stop-color="#f7dda4"
       id="stop1501" /><stop
       offset=".263"
       stop-color="#f9e1ab"
       id="stop1503" /><stop
       offset=".329"
       stop-color="#f7dfa8"
       id="stop1505" /><stop
       offset=".383"
       stop-color="#f2d89e"
       id="stop1507" /><stop
       offset=".398"
       stop-color="#efd599"
       id="stop1509" /><stop
       offset=".461"
       stop-color="#f2d795"
       id="stop1511" /><stop
       offset=".462"
       stop-color="#f2d795"
       id="stop1513" /><stop
       offset=".527"
       stop-color="#f2d795"
       id="stop1515" /><stop
       offset=".538"
       stop-color="#f2d795"
       id="stop1517" /><stop
       offset=".538"
       stop-color="#f2d795"
       id="stop1519" /><stop
       offset=".615"
       stop-color="#efda9c"
       id="stop1521" /><stop
       offset=".735"
       stop-color="#f6e5ad"
       id="stop1523" /><stop
       offset=".773"
       stop-color="#f9e9b4"
       id="stop1525" /><stop
       offset=".822"
       stop-color="#f7e1a6"
       id="stop1527" /><stop
       offset=".887"
       stop-color="#f5db9b"
       id="stop1529" /><stop
       offset=".956"
       stop-color="#f4d997"
       id="stop1531" /><stop
       offset=".967"
       stop-color="#f4da9c"
       id="stop1533" /><stop
       offset="1"
       stop-color="#f4db9e"
       id="stop1535" /></linearGradient><g
     id="g3078"
     transform="matrix(3.0236326,0,0,3.0236326,4.6444753,-1.3295431)"><g
       clip-path="url(#b)"
       transform="matrix(-0.35278,0,0,0.35278,8.025,26.504)"
       id="g3048"><path
         d="m 0,0 -19.243,6.562 a 1.66,1.66 0 0 1 -1.059,0 L -39.545,0 c -0.531,-0.181 -0.912,-0.618 -0.993,-1.139 l -8.982,-57.757 c -0.134,-0.863 0.585,-1.636 1.523,-1.636 H 8.452 c 0.938,0 1.657,0.773 1.523,1.636 L 0.993,-1.139 C 0.912,-0.618 0.531,-0.181 0,0"
         style="color:#000000;fill:url(#c);stroke-miterlimit:10;-inkscape-stroke:none"
         id="path3044" /><path
         d="m -47.996,-61.383 c -1.405,0 -2.58,1.223 -2.363,2.617 l 8.98,57.758 c 0.132,0.85 0.75,1.537 1.559,1.813 l 19.244,6.562 h 0.002 a 2.5,2.5 0 0 0 1.603,0 h 0.002 L 0.274,0.805 0.275,0.803 c 0.808,-0.277 1.427,-0.962 1.559,-1.81 l 8.98,-57.759 c 0.217,-1.394 -0.958,-2.617 -2.363,-2.617 h -28.224 z m 0,1.701 H 8.45 c 0.471,0 0.735,0.323 0.684,0.655 L 0.152,-1.27 c -0.03,0.193 -0.173,0.38 -0.425,0.465 L 0,0 l -0.275,-0.805 -19.24,6.56 a 0.8,0.8 0 0 1 -0.514,0 l -19.242,-6.56 c -0.253,-0.086 -0.396,-0.272 -0.426,-0.465 l -8.983,-57.757 c -0.051,-0.332 0.213,-0.655 0.684,-0.655"
         style="color:#000000;fill:#4d3608;stroke-miterlimit:10;-inkscape-stroke:none"
         id="path3046" /></g><path
       d="m 411.465,20.897 v 1 h -0.827 v -1 h -2.584 v -0.723 h 2.584 v -1.172 h -3.41 v -0.757 h 7.544 v 0.757 h -3.307 v 1.172 h 2.55 v 0.723 z m 0,3.721 v 1.137 h -0.827 v -1.137 h -2.584 v -0.69 h 2.584 v -1.101 h -3.41 v -0.69 h 7.51 v 0.69 h -3.273 v 1.102 h 2.55 v 0.689 z"
       aria-label="圭"
       style="fill:#ff0000;stroke-width:0.352777"
       transform="translate(-396)"
       id="path3050" /><path
       d="m 411.225,8 v 8 h -0.45 V 8 Z"
       style="color:#000000;fill:#ff0000;stroke-width:0.352778;stroke-miterlimit:10;-inkscape-stroke:none"
       transform="translate(-396)"
       id="path3052" /><path
       d="m 415,11.775 v 0.45 h -8 v -0.45 z"
       style="color:#000000;fill:#ff0000;stroke-width:0.352778;stroke-miterlimit:10;-inkscape-stroke:none"
       transform="translate(-396)"
       id="path3054" /><path
       d="m 411.159,11.84 2.828,2.83 -0.318,0.318 -2.828,-2.829 z"
       style="color:#000000;fill:#ff0000;stroke-width:0.352778;stroke-miterlimit:10;-inkscape-stroke:none"
       transform="translate(-396)"
       id="path3056" /><path
       d="m 410.84,11.84 0.32,0.32 -2.83,2.828 -0.318,-0.319 z"
       style="color:#000000;fill:#ff0000;stroke-width:0.352778;stroke-miterlimit:10;-inkscape-stroke:none"
       transform="translate(-396)"
       id="path3058" /></g></svg>
