<?xml version="1.0" encoding="UTF-8" standalone="no"?>
<svg
   version="1.1"
   id="svg8"
   viewBox="0 0 100 100"
   xml:space="preserve"
   sodipodi:docname="1NY.svg"
   inkscape:version="1.1.2 (0a00cf5339, 2022-02-04)"
   xmlns:inkscape="http://www.inkscape.org/namespaces/inkscape"
   xmlns:sodipodi="http://sodipodi.sourceforge.net/DTD/sodipodi-0.dtd"
   xmlns:xlink="http://www.w3.org/1999/xlink"
   xmlns="http://www.w3.org/2000/svg"
   xmlns:svg="http://www.w3.org/2000/svg"><defs
     id="defs1615"><linearGradient
       id="a"><stop
         offset="0"
         style="stop-color:#ffdba6;stop-opacity:1"
         id="stop2863" /><stop
         offset="1"
         style="stop-color:#f2c478;stop-opacity:1"
         id="stop2865" /></linearGradient><linearGradient
       xlink:href="#a"
       id="c"
       x1="289.069"
       x2="289.07"
       y1="220.195"
       y2="143.722"
       gradientTransform="translate(-2279.056,-212.603)"
       gradientUnits="userSpaceOnUse" /><clipPath
       id="b"
       clipPathUnits="userSpaceOnUse"><path
         d="M-174.688 1363.143h2834.646v-2834.646H-174.69Z"
         id="path2869" /></clipPath></defs><sodipodi:namedview
     id="namedview1613"
     pagecolor="#ffffff"
     bordercolor="#666666"
     borderopacity="1.0"
     inkscape:pageshadow="2"
     inkscape:pageopacity="0.0"
     inkscape:pagecheckerboard="0"
     showgrid="false"
     inkscape:zoom="8.3"
     inkscape:cx="27.289157"
     inkscape:cy="50"
     inkscape:window-width="1920"
     inkscape:window-height="1008"
     inkscape:window-x="0"
     inkscape:window-y="0"
     inkscape:window-maximized="1"
     inkscape:current-layer="svg8" /><style
     id="style1553">.st3{fill:#fff}</style><linearGradient
     id="SVGID_1_"
     gradientUnits="userSpaceOnUse"
     x1="22.775"
     y1="974.85"
     x2="77.618"
     y2="974.85"
     gradientTransform="translate(0 -922)"><stop
       offset="0"
       stop-color="#f9da9c"
       id="stop1555" /><stop
       offset=".043"
       stop-color="#fbe0a1"
       id="stop1557" /><stop
       offset=".067"
       stop-color="#fce6a6"
       id="stop1559" /><stop
       offset=".145"
       stop-color="#f4d593"
       id="stop1561" /><stop
       offset=".193"
       stop-color="#f5d797"
       id="stop1563" /><stop
       offset=".243"
       stop-color="#f7dda4"
       id="stop1565" /><stop
       offset=".263"
       stop-color="#f9e1ab"
       id="stop1567" /><stop
       offset=".329"
       stop-color="#f7dfa8"
       id="stop1569" /><stop
       offset=".383"
       stop-color="#f2d89e"
       id="stop1571" /><stop
       offset=".398"
       stop-color="#efd599"
       id="stop1573" /><stop
       offset=".461"
       stop-color="#f2d795"
       id="stop1575" /><stop
       offset=".462"
       stop-color="#f2d795"
       id="stop1577" /><stop
       offset=".527"
       stop-color="#f2d795"
       id="stop1579" /><stop
       offset=".538"
       stop-color="#f2d795"
       id="stop1581" /><stop
       offset=".538"
       stop-color="#f2d795"
       id="stop1583" /><stop
       offset=".615"
       stop-color="#efda9c"
       id="stop1585" /><stop
       offset=".735"
       stop-color="#f6e5ad"
       id="stop1587" /><stop
       offset=".773"
       stop-color="#f9e9b4"
       id="stop1589" /><stop
       offset=".822"
       stop-color="#f7e1a6"
       id="stop1591" /><stop
       offset=".887"
       stop-color="#f5db9b"
       id="stop1593" /><stop
       offset=".956"
       stop-color="#f4d997"
       id="stop1595" /><stop
       offset=".967"
       stop-color="#f4da9c"
       id="stop1597" /><stop
       offset="1"
       stop-color="#f4db9e"
       id="stop1599" /></linearGradient><g
     id="g2908"
     transform="matrix(3.023634,0,0,3.023634,4.6442651,-1.4009388)"><g
       clip-path="url(#b)"
       transform="matrix(-0.35278,0,0,0.35278,8.374,26.113)"
       id="g2878"><path
         d="m 0,0 -18.208,6.244 c -0.37,0.127 -0.78,0.127 -1.15,0 L -37.566,0 c -0.538,-0.184 -0.92,-0.612 -0.998,-1.116 l -8.551,-55.301 c -0.13,-0.841 0.611,-1.59 1.573,-1.59 H 7.976 c 0.962,0 1.703,0.749 1.573,1.59 L 0.998,-1.116 C 0.92,-0.612 0.538,-0.184 0,0"
         style="color:#000000;fill:url(#c);stroke-miterlimit:10;-inkscape-stroke:none"
         id="path2874" /><path
         d="m -45.543,-58.857 c -1.403,0 -2.628,1.171 -2.412,2.57 l 8.55,55.3 c 0.132,0.847 0.76,1.517 1.563,1.792 l 18.207,6.244 c 0.553,0.19 1.15,0.19 1.703,0 L 0.275,0.805 C 1.08,0.53 1.707,-0.14 1.838,-0.986 l 8.55,-55.301 c 0.217,-1.399 -1.008,-2.57 -2.411,-2.57 h -26.76 z m 0,1.7 h 53.52 c 0.52,0 0.776,0.327 0.732,0.61 l -8.55,55.3 c -0.026,0.162 -0.162,0.35 -0.434,0.442 l -18.21,6.244 a 0.95,0.95 0 0 1 -0.597,0 l -18.209,-6.244 c -0.273,-0.093 -0.407,-0.28 -0.432,-0.441 l -8.552,-55.3 c -0.044,-0.284 0.211,-0.61 0.732,-0.61"
         style="color:#000000;fill:#4d3608;stroke-miterlimit:10;-inkscape-stroke:none"
         id="path2876" /></g><path
       d="m 265.019,19.174 v 1.447 h 3.824 v -1.447 z m 3.824,-1.17 h 0.827 v 3.34 h -5.478 v -3.34 h 0.827 v 0.481 h 3.824 z m -1.482,6.924 v 1.068 h -0.86 v -1.068 h -3.411 v -0.69 h 3.066 q -0.724,-0.826 -1.344,-1.308 -0.723,-0.552 -1.93,-1.137 0.242,-0.31 0.518,-0.758 1.205,0.689 1.791,1.171 0.62,0.482 1.31,1.31 V 21.62 h 0.86 v 1.93 q 0.483,-0.517 1.103,-1.034 0.31,-0.24 0.999,-0.723 l 1.102,-0.62 q 0.345,0.482 0.552,0.654 -1.103,0.517 -1.895,1.103 -0.861,0.62 -1.447,1.309 h 2.825 v 0.689 z"
       aria-label="æ"
       style="fill:#ff0000;stroke-width:0.352777"
       transform="translate(-252)"
       id="path2880" /><path
       d="m 267.225,8 v 8 h -0.45 V 8 Z"
       style="color:#000000;fill:#ff0000;stroke-width:0.352778;stroke-miterlimit:10;-inkscape-stroke:none"
       transform="translate(-252)"
       id="path2882" /><path
       d="m 271,11.774 v 0.451 h -8 v -0.45 z"
       style="color:#000000;fill:#ff0000;stroke-width:0.352778;stroke-miterlimit:10;-inkscape-stroke:none"
       transform="translate(-252)"
       id="path2884" /><path
       d="m 267.159,11.84 2.828,2.83 -0.318,0.317 -2.828,-2.828 z"
       style="color:#000000;fill:#ff0000;stroke-width:0.352778;stroke-miterlimit:10;-inkscape-stroke:none"
       transform="translate(-252)"
       id="path2886" /><path
       d="m 266.84,11.84 0.319,0.319 -2.828,2.828 -0.319,-0.318 z"
       style="color:#000000;fill:#ff0000;stroke-width:0.352778;stroke-miterlimit:10;-inkscape-stroke:none"
       transform="translate(-252)"
       id="path2888" /></g></svg>
