<?xml version="1.0" encoding="UTF-8" standalone="no"?>
<svg
   version="1.1"
   id="svg8"
   viewBox="0 0 100 100"
   xml:space="preserve"
   sodipodi:docname="1RY.svg"
   inkscape:version="1.1.2 (0a00cf5339, 2022-02-04)"
   xmlns:inkscape="http://www.inkscape.org/namespaces/inkscape"
   xmlns:sodipodi="http://sodipodi.sourceforge.net/DTD/sodipodi-0.dtd"
   xmlns:xlink="http://www.w3.org/1999/xlink"
   xmlns="http://www.w3.org/2000/svg"
   xmlns:svg="http://www.w3.org/2000/svg"><defs
     id="defs1740"><linearGradient
       id="a"><stop
         offset="0"
         style="stop-color:#ffdba6;stop-opacity:1"
         id="stop2440" /><stop
         offset="1"
         style="stop-color:#f2c478;stop-opacity:1"
         id="stop2442" /></linearGradient><linearGradient
       xlink:href="#a"
       id="c"
       x1="289.069"
       x2="289.07"
       y1="220.195"
       y2="143.722"
       gradientTransform="translate(-2279.056,-212.603)"
       gradientUnits="userSpaceOnUse" /><clipPath
       id="b"
       clipPathUnits="userSpaceOnUse"><path
         d="M-531.981 1359.468h2834.646v-2834.646H-531.981Z"
         id="path2446" /></clipPath></defs><sodipodi:namedview
     id="namedview1738"
     pagecolor="#ffffff"
     bordercolor="#666666"
     borderopacity="1.0"
     inkscape:pageshadow="2"
     inkscape:pageopacity="0.0"
     inkscape:pagecheckerboard="0"
     showgrid="false"
     inkscape:zoom="8.3"
     inkscape:cx="27.289157"
     inkscape:cy="50"
     inkscape:window-width="1920"
     inkscape:window-height="1008"
     inkscape:window-x="0"
     inkscape:window-y="0"
     inkscape:window-maximized="1"
     inkscape:current-layer="svg8" /><style
     id="style1678">.st2{fill:#c30}</style><linearGradient
     id="SVGID_1_"
     gradientUnits="userSpaceOnUse"
     x1="17.242"
     y1="972"
     x2="82.762"
     y2="972"
     gradientTransform="translate(0 -922)"><stop
       offset="0"
       stop-color="#f9da9c"
       id="stop1680" /><stop
       offset=".043"
       stop-color="#fbe0a1"
       id="stop1682" /><stop
       offset=".067"
       stop-color="#fce6a6"
       id="stop1684" /><stop
       offset=".145"
       stop-color="#f4d593"
       id="stop1686" /><stop
       offset=".193"
       stop-color="#f5d797"
       id="stop1688" /><stop
       offset=".243"
       stop-color="#f7dda4"
       id="stop1690" /><stop
       offset=".263"
       stop-color="#f9e1ab"
       id="stop1692" /><stop
       offset=".329"
       stop-color="#f7dfa8"
       id="stop1694" /><stop
       offset=".383"
       stop-color="#f2d89e"
       id="stop1696" /><stop
       offset=".398"
       stop-color="#efd599"
       id="stop1698" /><stop
       offset=".461"
       stop-color="#f2d795"
       id="stop1700" /><stop
       offset=".462"
       stop-color="#f2d795"
       id="stop1702" /><stop
       offset=".527"
       stop-color="#f2d795"
       id="stop1704" /><stop
       offset=".538"
       stop-color="#f2d795"
       id="stop1706" /><stop
       offset=".538"
       stop-color="#f2d795"
       id="stop1708" /><stop
       offset=".615"
       stop-color="#efda9c"
       id="stop1710" /><stop
       offset=".735"
       stop-color="#f6e5ad"
       id="stop1712" /><stop
       offset=".773"
       stop-color="#f9e9b4"
       id="stop1714" /><stop
       offset=".822"
       stop-color="#f7e1a6"
       id="stop1716" /><stop
       offset=".887"
       stop-color="#f5db9b"
       id="stop1718" /><stop
       offset=".956"
       stop-color="#f4d997"
       id="stop1720" /><stop
       offset=".967"
       stop-color="#f4da9c"
       id="stop1722" /><stop
       offset="1"
       stop-color="#f4db9e"
       id="stop1724" /></linearGradient><g
     id="g2488"
     transform="matrix(3.0236385,0,0,3.0236385,4.6448048,-1.3314276)"><g
       clip-path="url(#b)"
       transform="matrix(-0.35278,0,0,0.35278,7.329,27.41)"
       id="g2455"><path
         d="m 0,0 -21.223,7.255 a 1.62,1.62 0 0 1 -1.044,0 L -43.49,0 c -0.512,-0.175 -0.879,-0.592 -0.956,-1.088 L -54.328,-64.8 c -0.128,-0.823 0.569,-1.559 1.477,-1.559 H 9.361 c 0.907,0 1.605,0.736 1.477,1.559 L 0.955,-1.088 C 0.879,-0.592 0.512,-0.175 0,0"
         style="color:#000000;fill:url(#c);stroke-miterlimit:10;-inkscape-stroke:none"
         id="path2451" /><path
         d="m -52.852,-67.209 c -1.367,0 -2.528,1.177 -2.316,2.54 l 9.88,63.712 c 0.13,0.83 0.737,1.493 1.522,1.762 L -22.54,8.06 a 2.46,2.46 0 0 0 1.592,0 h 0.002 L 0.275,0.805 C 1.06,0.536 1.667,-0.127 1.795,-0.957 v -0.002 l 9.883,-63.71 c 0.212,-1.364 -0.95,-2.54 -2.317,-2.54 h -31.105 z m 0,1.701 H 9.361 c 0.447,0 0.681,0.293 0.637,0.576 v 0.002 L 0.115,-1.217 c -0.024,0.162 -0.152,0.33 -0.39,0.412 L -21.498,6.451 V 6.45 a 0.78,0.78 0 0 1 -0.494,0 v 0.002 l -21.223,-7.257 c -0.238,-0.081 -0.365,-0.251 -0.39,-0.414 l -9.883,-63.71 v -0.003 c -0.044,-0.283 0.188,-0.576 0.636,-0.576"
         style="color:#000000;fill:#4d3608;stroke-miterlimit:10;-inkscape-stroke:none"
         id="path2453" /></g><path
       d="m 915.225,6.82 v 8.36 h -0.45 V 6.82 Z"
       style="color:#000000;fill:#ff0000;stroke-width:0.352778;stroke-miterlimit:10;-inkscape-stroke:none"
       transform="translate(-900)"
       id="path2457" /><path
       d="m 915.685,14.176 0.319,0.318 -1.004,1.003 -1.004,-1.003 0.319,-0.318 0.685,0.685 z M 915,6.503 916.004,7.506 915.685,7.824 915,7.14 914.315,7.825 913.997,7.507 Z m 4.18,4.272 v 0.45 h -8.36 v -0.45 z"
       style="color:#000000;fill:#ff0000;stroke-width:0.352778;stroke-miterlimit:10;-inkscape-stroke:none"
       transform="translate(-900)"
       id="path2459" /><path
       d="m 918.494,9.996 1.003,1.004 -1.003,1.004 -0.318,-0.319 0.685,-0.685 -0.685,-0.685 z m -6.988,0 0.318,0.319 -0.685,0.685 0.685,0.685 -0.318,0.318 L 910.503,11 Z"
       style="color:#000000;fill:#ff0000;stroke-width:0.352778;stroke-miterlimit:10;-inkscape-stroke:none"
       transform="translate(-900)"
       id="path2461" /><path
       d="m 916.19,20.644 v 0.496 h 1.456 v -0.496 z m 0,1.025 v 0.53 h 1.456 v -0.53 z m 2.184,-3.142 v 4.366 h -2.91 v -3.539 q 0,-0.33 0.198,-0.529 0.264,-0.198 0.826,-0.298 0.034,0.298 0.1,0.463 0,0.033 0.066,0.133 l 0.165,0.165 h -0.43 q -0.132,0 -0.165,0.033 -0.033,0.033 -0.033,0.132 v 0.596 h 1.455 v -1.522 z m -3.671,5.325 v 2.282 h -0.794 v -0.628 h -2.381 V 24.91 h 2.38 v -0.496 h -2.38 v -1.686 h 2.447 v -0.497 h -2.216 v -0.43 h 2.216 v -0.463 h -2.216 v -0.463 h 2.216 v -0.463 h -2.216 v -0.463 h 2.216 v -0.396 q 0,-0.232 -0.132,-0.265 -0.066,-0.066 -0.463,-0.066 h -0.926 q -0.331,0 -0.364,0.033 -0.298,0.1 -0.331,0.53 -0.33,-0.232 -0.661,-0.332 0.132,-0.496 0.363,-0.661 0.232,-0.199 0.53,-0.199 h 1.72 q 0.363,0 0.562,0.067 0.165,0.033 0.33,0.264 0.1,0.132 0.1,0.43 v 3.936 h -2.448 v 0.562 z m 1.852,0.1 -0.265,0.991 h 1.19 q -0.165,-0.529 -0.297,-0.992 z m 0.727,1.554 v 0.661 h -0.794 v -0.661 h -1.322 v -0.563 h 0.396 l 0.331,-0.992 H 915 V 23.29 h 3.77 v 0.661 h -0.892 q 0,0.1 0.099,0.43 0.099,0.364 0.165,0.562 h 0.496 v 0.563 z"
       aria-label="é¾"
       style="fill:#ff0000;stroke-width:0.352777"
       transform="translate(-900)"
       id="path2463" /><path
       d="m 912.695,8.376 4.929,4.93 -0.319,0.318 -4.929,-4.93 z"
       style="color:#000000;fill:#ff0000;stroke-width:0.352778;stroke-miterlimit:10;-inkscape-stroke:none"
       transform="translate(-900)"
       id="path2465" /><path
       d="m 917.305,8.376 0.319,0.318 -4.93,4.93 -0.318,-0.318 z"
       style="color:#000000;fill:#ff0000;stroke-width:0.352778;stroke-miterlimit:10;-inkscape-stroke:none"
       transform="translate(-900)"
       id="path2467" /></g></svg>
