<?xml version="1.0" encoding="UTF-8" standalone="no"?>
<svg
   viewBox="0 0 100 100"
   version="1.1"
   id="svg1858"
   sodipodi:docname="1UM.svg"
   inkscape:version="1.1.2 (0a00cf5339, 2022-02-04)"
   xmlns:inkscape="http://www.inkscape.org/namespaces/inkscape"
   xmlns:sodipodi="http://sodipodi.sourceforge.net/DTD/sodipodi-0.dtd"
   xmlns:xlink="http://www.w3.org/1999/xlink"
   xmlns="http://www.w3.org/2000/svg"
   xmlns:svg="http://www.w3.org/2000/svg">
  <defs
     id="defs1862">
    <linearGradient
       id="a-3">
      <stop
         offset="0"
         style="stop-color:#ffdba6;stop-opacity:1"
         id="stop2022" />
      <stop
         offset="1"
         style="stop-color:#f2c478;stop-opacity:1"
         id="stop2024" />
    </linearGradient>
    <linearGradient
       xlink:href="#a-3"
       id="c"
       x1="289.069"
       x2="289.07"
       y1="220.195"
       y2="143.722"
       gradientTransform="translate(-2279.056,-212.603)"
       gradientUnits="userSpaceOnUse" />
    <clipPath
       id="b"
       clipPathUnits="userSpaceOnUse">
      <path
         d="M-461.115 1359.468H2373.53v-2834.646H-461.115Z"
         id="path2028" />
    </clipPath>
  </defs>
  <sodipodi:namedview
     id="namedview1860"
     pagecolor="#ffffff"
     bordercolor="#666666"
     borderopacity="1.0"
     inkscape:pageshadow="2"
     inkscape:pageopacity="0.0"
     inkscape:pagecheckerboard="0"
     showgrid="false"
     inkscape:zoom="5.8689863"
     inkscape:cx="104.87331"
     inkscape:cy="62.532094"
     inkscape:window-width="1920"
     inkscape:window-height="1008"
     inkscape:window-x="0"
     inkscape:window-y="0"
     inkscape:window-maximized="1"
     inkscape:current-layer="svg1858" />
  <linearGradient
     id="a"
     gradientUnits="userSpaceOnUse"
     x1="17.242"
     y1="972"
     x2="82.762"
     y2="972"
     gradientTransform="translate(0 -922)">
    <stop
       offset="0"
       stop-color="#f9da9c"
       id="stop1803" />
    <stop
       offset=".043"
       stop-color="#fbe0a1"
       id="stop1805" />
    <stop
       offset=".067"
       stop-color="#fce6a6"
       id="stop1807" />
    <stop
       offset=".145"
       stop-color="#f4d593"
       id="stop1809" />
    <stop
       offset=".193"
       stop-color="#f5d797"
       id="stop1811" />
    <stop
       offset=".243"
       stop-color="#f7dda4"
       id="stop1813" />
    <stop
       offset=".263"
       stop-color="#f9e1ab"
       id="stop1815" />
    <stop
       offset=".329"
       stop-color="#f7dfa8"
       id="stop1817" />
    <stop
       offset=".383"
       stop-color="#f2d89e"
       id="stop1819" />
    <stop
       offset=".398"
       stop-color="#efd599"
       id="stop1821" />
    <stop
       offset=".461"
       stop-color="#f2d795"
       id="stop1823" />
    <stop
       offset=".462"
       stop-color="#f2d795"
       id="stop1825" />
    <stop
       offset=".527"
       stop-color="#f2d795"
       id="stop1827" />
    <stop
       offset=".538"
       stop-color="#f2d795"
       id="stop1829" />
    <stop
       offset=".538"
       stop-color="#f2d795"
       id="stop1831" />
    <stop
       offset=".615"
       stop-color="#efda9c"
       id="stop1833" />
    <stop
       offset=".735"
       stop-color="#f6e5ad"
       id="stop1835" />
    <stop
       offset=".773"
       stop-color="#f9e9b4"
       id="stop1837" />
    <stop
       offset=".822"
       stop-color="#f7e1a6"
       id="stop1839" />
    <stop
       offset=".887"
       stop-color="#f5db9b"
       id="stop1841" />
    <stop
       offset=".956"
       stop-color="#f4d997"
       id="stop1843" />
    <stop
       offset=".967"
       stop-color="#f4da9c"
       id="stop1845" />
    <stop
       offset="1"
       stop-color="#f4db9e"
       id="stop1847" />
  </linearGradient>
  <g
     id="g2067"
     transform="matrix(3.0236385,0,0,3.0236385,4.6448048,-1.3314276)">
    <g
       clip-path="url(#b)"
       transform="matrix(-0.35278,0,0,0.35278,7.329,27.41)"
       id="g2037">
      <path
         d="m 0,0 -21.223,7.255 a 1.62,1.62 0 0 1 -1.044,0 L -43.49,0 c -0.512,-0.175 -0.879,-0.592 -0.956,-1.088 L -54.328,-64.8 c -0.128,-0.823 0.569,-1.559 1.477,-1.559 H 9.361 c 0.907,0 1.605,0.736 1.477,1.559 L 0.955,-1.088 C 0.879,-0.592 0.512,-0.175 0,0"
         style="color:#000000;fill:url(#c);stroke-miterlimit:10;-inkscape-stroke:none"
         id="path2033" />
      <path
         d="m -52.852,-67.209 c -1.367,0 -2.528,1.177 -2.316,2.54 l 9.88,63.712 c 0.13,0.83 0.737,1.493 1.522,1.762 L -22.54,8.06 a 2.46,2.46 0 0 0 1.592,0 h 0.002 L 0.275,0.805 C 1.06,0.536 1.667,-0.127 1.795,-0.957 v -0.002 l 9.883,-63.71 c 0.212,-1.364 -0.95,-2.54 -2.317,-2.54 h -31.105 z m 0,1.701 H 9.361 c 0.447,0 0.681,0.293 0.637,0.576 v 0.002 L 0.115,-1.217 c -0.024,0.162 -0.152,0.33 -0.39,0.412 L -21.498,6.451 V 6.45 a 0.78,0.78 0 0 1 -0.494,0 v 0.002 l -21.223,-7.257 c -0.238,-0.081 -0.365,-0.251 -0.39,-0.414 l -9.883,-63.71 v -0.003 c -0.044,-0.283 0.188,-0.576 0.636,-0.576"
         style="color:#000000;fill:#4d3608;stroke-miterlimit:10;-inkscape-stroke:none"
         id="path2035" />
    </g>
    <path
       d="m 773.082,20.478 -0.628,0.133 q -0.231,-0.662 -0.364,-1.29 l 0.695,-0.166 q 0.033,0.53 0.297,1.323 m 1.092,0.232 -0.662,-0.232 q 0.232,-0.86 0.596,-1.62 l 0.661,0.297 q -0.264,0.629 -0.595,1.555 m -2.547,-0.166 -0.562,0.199 q -0.232,-0.364 -0.496,-1.158 l 0.595,-0.231 q 0.132,0.397 0.463,1.19 m -1.918,-0.86 0.562,1.026 -0.562,0.264 q -0.298,-0.43 -0.595,-0.992 z m 1.587,2.15 v 0.728 h 1.952 v -0.728 z m 0,1.356 v 0.662 h 1.952 V 23.19 Z m 0,1.257 v 0.662 h 1.952 v -0.662 z m 2.712,-3.506 v 4.862 h -6.25 v -0.694 h 2.778 v -0.662 h -2.348 v -0.595 h 2.348 V 23.19 h -2.348 v -0.628 h 2.348 v -0.728 h -3.043 q 0.033,-2.017 0.199,-2.58 0.066,-0.363 0.297,-0.462 0.397,-0.232 1.323,-0.364 0.033,0.297 0.298,0.86 h -0.794 q -0.265,0 -0.298,0.099 -0.132,0.231 -0.165,1.786 h 4.895 v -0.232 z"
       aria-label="馬"
       style="fill:#ff0000;stroke-width:0.352777"
       transform="translate(-756)"
       id="path2039" />
    <path
       d="m 767.835,7.483 6.648,6.717 -0.32,0.316 -6.648,-6.716 z"
       style="color:#000000;fill:#ff0000;stroke-width:0.352778;stroke-miterlimit:10;-inkscape-stroke:none"
       transform="translate(-756)"
       id="path2041" />
    <path
       d="m 774.548,13 v 1.583 h -1.569 v -0.45 h 1.118 v -1.132 z m -5.53,-5.584 v 0.45 H 767.9 v 1.132 h -0.45 V 7.416 Z m 5.145,0.067 0.32,0.316 -6.648,6.717 -0.32,-0.317 z"
       style="color:#000000;fill:#ff0000;stroke-width:0.352778;stroke-miterlimit:10;-inkscape-stroke:none"
       transform="translate(-756)"
       id="path2043" />
    <path
       d="m 774.548,7.416 v 1.583 h -0.45 V 7.867 h -1.119 V 7.416 Z M 767.9,13 v 1.133 h 1.118 v 0.45 h -1.568 v -1.582 z m 3.325,-4.5 v 5 h -0.45 v -5 z"
       style="color:#000000;fill:#ff0000;stroke-width:0.352778;stroke-miterlimit:10;-inkscape-stroke:none"
       transform="translate(-756)"
       id="path2045" />
    <path
       d="m 773.5,10.774 v 0.451 h -5 v -0.45 z"
       style="color:#000000;fill:#ff0000;stroke-width:0.352778;stroke-miterlimit:10;-inkscape-stroke:none"
       transform="translate(-756)"
       id="path2047" />
  </g>
</svg>
